<svg xmlns="http://www.w3.org/2000/svg" width="1200" height="630" viewBox="0 0 1200 630">
  <rect width="1200" height="630" fill="#090b10"/>
  <rect x="780" width="420" height="210" fill="#240c12"/>
  <rect y="500" width="300" height="130" fill="#18150e"/>
  <g stroke="#16171b" stroke-width="1" opacity="0.85">
    <path d="M0 80h1200M0 160h1200M0 240h1200M0 320h1200M0 400h1200M0 480h1200M0 560h1200"/>
    <path d="M80 0v630M160 0v630M240 0v630M320 0v630M400 0v630M480 0v630M560 0v630M640 0v630M720 0v630M800 0v630M880 0v630M960 0v630M1040 0v630M1120 0v630"/>
  </g>
  <rect x="54" y="52" width="1092" height="526" fill="none" stroke="#8c764c" stroke-width="2"/>
  <rect x="83" y="82" width="68" height="466" fill="#1f0d12" stroke="#6f1e2a" stroke-width="2"/>
  <g font-family="Noto Serif CJK JP, Noto Serif JP, Yu Mincho, serif" font-size="34" font-weight="700" fill="#ecddc7" text-anchor="middle">
    <text x="117" y="148">境</text><text x="117" y="220">界</text><text x="117" y="292">夜</text><text x="117" y="364">話</text>
  </g>
  <text x="205" y="140" font-family="Noto Sans CJK JP, sans-serif" font-size="22" font-weight="700" fill="#c7a76a">KYOKAI YAWA</text>
  <text x="198" y="270" font-family="Noto Serif CJK JP, Noto Serif JP, Yu Mincho, serif" font-size="92" font-weight="700" fill="#f1e9dc">境界夜話</text>
  <text x="204" y="326" font-family="Noto Serif CJK JP, Noto Serif JP, Yu Mincho, serif" font-size="34" fill="#d7cbb9">四つの怪談アーカイブ</text>
  <path d="M205 365h875" stroke="#8c764c" stroke-width="2"/>
  <text x="205" y="435" font-family="Noto Serif CJK JP, Noto Serif JP, Yu Mincho, serif" font-size="25" fill="#beb5a7">真壁夜話　｜　黒瀬蒐集録　｜　榊家異聞　｜　境界観測記</text>
  <text x="205" y="505" font-family="Noto Serif CJK JP, Noto Serif JP, Yu Mincho, serif" font-size="23" fill="#ded3c3">記録、家、土地、境界に残る夜の話。</text>
</svg>
